<svg width="38" height="68" viewBox="0 0 38 68" fill="none" xmlns="http://www.w3.org/2000/svg">
<g filter="url(#filter0_d_1_171)">
<path d="M12.68 43.9C12.68 45.06 12.8 45.92 13.04 46.48C13.32 47 13.8 47.36 14.48 47.56C15.2 47.76 16.32 47.86 17.84 47.86H25.52C29.48 47.86 31.82 45.32 32.54 40.24C32.54 40.12 32.64 40.08 32.84 40.12C33.08 40.12 33.2 40.18 33.2 40.3C32.84 43.46 32.66 46.06 32.66 48.1C32.66 48.42 32.6 48.66 32.48 48.82C32.36 48.94 32.12 49 31.76 49H4.16C4.08 49 4.04 48.88 4.04 48.64C4.04 48.4 4.08 48.28 4.16 48.28C5.72 48.28 6.86 48.18 7.58 47.98C8.34 47.78 8.84 47.4 9.08 46.84C9.36 46.24 9.5 45.34 9.5 44.14V16.36C9.5 15.16 9.36 14.28 9.08 13.72C8.84 13.16 8.34 12.78 7.58 12.58C6.86 12.34 5.72 12.22 4.16 12.22C4.08 12.22 4.04 12.1 4.04 11.86C4.04 11.62 4.08 11.5 4.16 11.5L7.1 11.56C8.78 11.64 10.1 11.68 11.06 11.68C12.14 11.68 13.52 11.64 15.2 11.56L18.02 11.5C18.1 11.5 18.14 11.62 18.14 11.86C18.14 12.1 18.1 12.22 18.02 12.22C16.46 12.22 15.3 12.34 14.54 12.58C13.82 12.78 13.32 13.18 13.04 13.78C12.8 14.34 12.68 15.22 12.68 16.42V43.9Z" fill="#8A8686"/>
<path d="M32.55 28.25C32.55 28.35 32.45 28.4 32.25 28.4C32.0833 28.4 32 28.35 32 28.25C32 26.55 31.55 25.2 30.65 24.2C29.75 23.2 28.5667 22.7 27.1 22.7H23.65C22.4167 22.7 21.5 22.7833 20.9 22.95C20.3 23.1167 19.8833 23.4167 19.65 23.85C19.4167 24.2833 19.3 24.95 19.3 25.85V36.85H24.75C26.45 36.85 27.65 36.6 28.35 36.1C29.05 35.5667 29.4 34.6667 29.4 33.4C29.4 33.3333 29.5 33.3 29.7 33.3C29.9 33.3 30 33.3333 30 33.4L29.95 37.35C29.95 38.3167 29.9667 39.0333 30 39.5L30.05 41.85C30.05 41.9167 29.95 41.95 29.75 41.95C29.55 41.95 29.45 41.9167 29.45 41.85C29.45 40.35 29.0833 39.3 28.35 38.7C27.65 38.1 26.3833 37.8 24.55 37.8H19.3V48.75C19.3 49.8167 19.45 50.6 19.75 51.1C20.05 51.5667 20.6167 51.9 21.45 52.1C22.3167 52.3 23.6833 52.4 25.55 52.4C25.65 52.4 25.7 52.5 25.7 52.7C25.7 52.9 25.65 53 25.55 53C24.1833 53 23.1167 52.9833 22.35 52.95L18 52.9L14.7 52.95C14.1 52.9833 13.2667 53 12.2 53C12.1333 53 12.1 52.9 12.1 52.7C12.1 52.5 12.1333 52.4 12.2 52.4C13.5 52.4 14.45 52.3167 15.05 52.15C15.6833 51.9833 16.1 51.6667 16.3 51.2C16.5333 50.7 16.65 49.95 16.65 48.95V25.8C16.65 24.8 16.5333 24.0667 16.3 23.6C16.1 23.1333 15.6833 22.8167 15.05 22.65C14.45 22.45 13.5 22.35 12.2 22.35C12.1333 22.35 12.1 22.25 12.1 22.05C12.1 21.85 12.1333 21.75 12.2 21.75H32C32.3 21.75 32.45 21.9 32.45 22.2L32.55 28.25Z" fill="white"/>
</g>
<defs>
<filter id="filter0_d_1_171" x="0.0400391" y="11.5" width="37.1602" height="49.5" filterUnits="userSpaceOnUse" color-interpolation-filters="sRGB">
<feFlood flood-opacity="0" result="BackgroundImageFix"/>
<feColorMatrix in="SourceAlpha" type="matrix" values="0 0 0 0 0 0 0 0 0 0 0 0 0 0 0 0 0 0 127 0" result="hardAlpha"/>
<feOffset dy="4"/>
<feGaussianBlur stdDeviation="2"/>
<feComposite in2="hardAlpha" operator="out"/>
<feColorMatrix type="matrix" values="0 0 0 0 0 0 0 0 0 0 0 0 0 0 0 0 0 0 0.25 0"/>
<feBlend mode="normal" in2="BackgroundImageFix" result="effect1_dropShadow_1_171"/>
<feBlend mode="normal" in="SourceGraphic" in2="effect1_dropShadow_1_171" result="shape"/>
</filter>
</defs>
</svg>
